<svg id="SvgjsSvg1001" width="288" height="288" xmlns="http://www.w3.org/2000/svg" version="1.1" xmlns:xlink="http://www.w3.org/1999/xlink" xmlns:svgjs="http://svgjs.com/svgjs"><defs id="SvgjsDefs1002"></defs><g id="SvgjsG1008"><svg xmlns="http://www.w3.org/2000/svg" viewBox="0 0 64 64" width="288" height="288"><path fill="#ffffff" d="M6.54 55.08a1.91 1.91 0 0 1-.62-.1 2 2 0 0 1-1.38-2c0-.3 2.06-29.34 31.18-31.62V10.92a2 2 0 0 1 3.43-1.4l19.74 20.16a2 2 0 0 1 0 2.8L39.15 52.64a2 2 0 0 1-3.43-1.4V41c-19.44.74-27.41 13-27.49 13.15a2 2 0 0 1-1.69.93Zm33.18-39.26v7.41a2 2 0 0 1-1.93 2c-18.84.69-25.58 13.24-28 21.31 5-4.32 13.91-9.6 27.81-9.6h.09a2 2 0 0 1 2 2v7.41l15-15.26Z" data-name="Arrow" class="color222 svgShape"></path></svg></g></svg>